# xmcd
#
# Track frame offsets: 
#        150
#        4186
#        24662
#        42730
#        70865
#        92050
#        112376
#        118954
#        134500
#        155310
#        179447
#
# Disc length: 2592 seconds
#
# Revision: 0
# Processed by: cddbd v1.5.2PL0 Copyright (c) Steve Scherf et al.
# Submitted via: ExactAudioCopyFreeDBPlugin 1.0
#
DISCID=a10a1e0b
DTITLE=久保田利伸 - Parallel World II KUBOSSA
DYEAR=2013
DGENRE=R&B
TTITLE0=As you're in Rio ～Foreplay～
TTITLE1=Corcovado (Quiet Nights of Quiet Stars)
TTITLE2=Smile・Eyes・Cry
TTITLE3=Between The Sheets
TTITLE4=Dance If You Want It (KUBOSSA ver.)
TTITLE5=Heavenly Lady
TTITLE6=As you're in Rio ～The play～
TTITLE7=The Shadow of Your Smile
TTITLE8=a Love Story (KUBOSSA ver.)
TTITLE9=雨音 (KUBOSSA ver.)
TTITLE10=My Cherie Amour
EXTD=
EXTT0=
EXTT1=
EXTT2=
EXTT3=
EXTT4=
EXTT5=
EXTT6=
EXTT7=
EXTT8=
EXTT9=
EXTT10=
PLAYORDER=
